<?xml version="1.0" encoding="utf-8"?><!-- Uploaded to: SVG Repo, www.svgrepo.com, Generator: SVG Repo Mixer Tools -->
<svg fill="#000000" width="800px" height="800px" viewBox="0 0 24 24" id="edit-user-6" data-name="Flat Color" xmlns="http://www.w3.org/2000/svg" class="icon flat-color"><path id="primary" d="M18,9a7,7,0,0,1-1.1,3.75c-.87.91-5.31,5.45-5.31,5.45A2,2,0,0,0,11,19.61V22c-6.23,0-8.47-2.06-8.71-2.29A1,1,0,0,1,2,19V18a6,6,0,0,1,3.1-5.25A7,7,0,1,1,18,9Z" style="fill: rgb(0, 0, 0);"></path><path id="secondary" d="M20.31,12.29l1.4,1.4a1,1,0,0,1,0,1.4L15.1,21.71a1.05,1.05,0,0,1-.71.29H13a1,1,0,0,1-1-1V19.61a1.05,1.05,0,0,1,.29-.71l6.62-6.61A1,1,0,0,1,20.31,12.29Z" style="fill: rgb(44, 169, 188);"></path></svg>